<?xml version="1.0" standalone="no"?><!DOCTYPE svg PUBLIC "-//W3C//DTD SVG 1.1//EN" "http://www.w3.org/Graphics/SVG/1.1/DTD/svg11.dtd"><svg t="1631258515367" class="icon" viewBox="0 0 1024 1024" version="1.1" xmlns="http://www.w3.org/2000/svg" p-id="637" xmlns:xlink="http://www.w3.org/1999/xlink" width="192" height="192"><defs><style type="text/css"></style></defs><path d="M895.3 282.4L529.4 82.9c-10.9-5.9-24-5.9-34.9 0L408.2 130c-9.2 5-13.1 15.7-10.2 25.8 4.5 15.1 4.7 31.9-1.7 49.7-9.5 26.5-32.8 47.4-60.4 53-31.4 6.3-60.1-5.4-78.5-26.6-6.7-7.8-17.8-10-26.8-5L177.3 256c-26.5 14.5-25.1 53 2.4 65.4l313.9 142.2c10.5 4.8 22.6 4.3 32.7-1.3L650 393.6c0-0.7-0.2-1.3-0.2-2 0-52.5 49.4-93.7 104.2-79.4 27.7 7.2 50.3 29.8 57.5 57.4 14.3 54.8-26.9 104.3-79.4 104.3-17.9 0-34.4-5.9-47.9-15.7l-117 65c-11.6 6.4-18.7 18.6-18.7 31.8v139.7c32.5 16.3 53 53 43.3 93.5-6.8 28.4-29.6 51.9-57.8 59.2-54.8 14.3-104.3-26.9-104.3-79.4 0-32.2 18.7-59.8 45.7-73.3V559.1c0-14.3-8.4-27.3-21.4-33.2L161.4 393.3c-24.2-11-51.7 6.7-51.7 33.3V710c0 13.3 7.3 25.6 19 32l365.9 199.6c10.9 5.9 24 5.9 34.9 0L895.3 742c11.7-6.4 19-18.7 19-32V314.4c0-13.3-7.3-25.6-19-32z" fill="#0F1F3C" p-id="638"></path><path d="M308.220576 203.155431a27.4 27.4 0 1 0 20.971052-50.628598 27.4 27.4 0 1 0-20.971052 50.628598Z" fill="#0F1F3C" p-id="639"></path><path d="M512 768m-27.4 0a27.4 27.4 0 1 0 54.8 0 27.4 27.4 0 1 0-54.8 0Z" fill="#0F1F3C" p-id="640"></path><path d="M732.2 391.5m-27.4 0a27.4 27.4 0 1 0 54.8 0 27.4 27.4 0 1 0-54.8 0Z" fill="#0F1F3C" p-id="641"></path></svg>